<?xml version="1.0" encoding="UTF-8" standalone="no"?>
<!-- Created with Inkscape (http://www.inkscape.org/) -->

<svg
   xmlns:dc="http://purl.org/dc/elements/1.1/"
   xmlns:cc="http://creativecommons.org/ns#"
   xmlns:rdf="http://www.w3.org/1999/02/22-rdf-syntax-ns#"
   xmlns:svg="http://www.w3.org/2000/svg"
   xmlns="http://www.w3.org/2000/svg"
   xmlns:sodipodi="http://sodipodi.sourceforge.net/DTD/sodipodi-0.dtd"
   xmlns:inkscape="http://www.inkscape.org/namespaces/inkscape"
   width="357.76907mm"
   height="460.09436mm"
   viewBox="0 0 357.76907 460.09436"
   version="1.1"
   id="svg897"
   inkscape:version="0.92.4 (5da689c313, 2019-01-14)"
   sodipodi:docname="incubator-logo-blue.svg">
  <defs
     id="defs891" />
  <sodipodi:namedview
     id="base"
     pagecolor="#ffffff"
     bordercolor="#666666"
     borderopacity="1.0"
     inkscape:pageopacity="0.0"
     inkscape:pageshadow="2"
     inkscape:zoom="0.35"
     inkscape:cx="-972.08764"
     inkscape:cy="1156.0822"
     inkscape:document-units="mm"
     inkscape:current-layer="layer1"
     showgrid="false"
     fit-margin-top="5"
     fit-margin-left="5"
     fit-margin-right="5"
     fit-margin-bottom="5"
     inkscape:window-width="3840"
     inkscape:window-height="2032"
     inkscape:window-x="0"
     inkscape:window-y="54"
     inkscape:window-maximized="1" />
  <metadata
     id="metadata894">
    <rdf:RDF>
      <cc:Work
         rdf:about="">
        <dc:format>image/svg+xml</dc:format>
        <dc:type
           rdf:resource="http://purl.org/dc/dcmitype/StillImage" />
        <dc:title></dc:title>
      </cc:Work>
    </rdf:RDF>
  </metadata>
  <g
     inkscape:label="Layer 1"
     inkscape:groupmode="layer"
     id="layer1"
     transform="translate(-160.05831,126.33332)">
    <path
       style="display:inline;fill:#071159;fill-opacity:1;stroke:#071159;stroke-width:11;stroke-miterlimit:4;stroke-dasharray:none;stroke-opacity:1"
       d="m 334.57323,-115.83321 c -10.1823,-0.0206 -20.14656,2.92683 -29.47137,6.79404 -21.51256,9.276056 -39.40832,25.033336 -54.71368,42.328286 -25.34907,28.91296 -44.08481,63.0515698 -57.64118,98.73022 -11.60906,30.85084 -19.29938,63.21552 -21.7804,96.045524 -0.58258,12.54822 -0.42578,25.16473 -0.23143,37.73911 0.67979,15.6669 2.99485,31.3468 6.99832,46.55947 5.68771,21.60963 15.35974,42.49803 30.16524,59.55815 14.36067,16.85788 33.16232,29.68218 53.88744,37.72956 22.46997,8.80639 46.71459,12.7979 70.7988,13.51206 13.0528,0.23849 26.11083,0.17952 38.99278,-1.91595 25.90361,-3.7931 51.05779,-13.52132 72.01532,-29.14566 17.38701,-12.71405 31.66774,-29.31684 42.1418,-47.96855 11.4259,-20.21002 18.63767,-42.70045 21.12084,-65.67866 0.74282,-12.01103 0.37148,-24.07262 0.40717,-36.10779 0.0815,-11.45203 -1.11533,-22.82134 -2.82342,-34.13704 -6.38051,-43.178584 -20.24282,-85.368934 -41.35731,-123.749634 -14.37072,-25.86583 -32.15683,-50.23418 -54.72302,-69.77829 -15.7017,-13.60676 -34.28741,-24.690926 -54.88319,-29.064096 -6.17765,-1.42898 -12.58252,-1.39968 -18.90271,-1.45075 z m 2.4851,3.38764 c 18.88662,-0.1142 37.02559,7.25603 52.54978,17.432996 22.05143,14.5118 39.83908,34.51528 54.66893,56.005 22.3674,32.7859998 38.24407,69.66061 48.35536,107.83097 7.35592,28.04464 11.44169,56.963924 11.71847,85.940414 0.32423,32.0055 -7.50271,64.35151 -24.26493,91.89828 -15.31895,25.40981 -38.47,46.19765 -65.76017,58.49784 -23.49293,10.66556 -49.57736,15.16205 -75.35484,14.60145 -27.54605,-0.28607 -55.45139,-4.44767 -80.79422,-15.47167 -11.69479,-5.18083 -22.89201,-11.68498 -32.61555,-19.96374 -7.77086,-6.95671 -15.34581,-14.25709 -21.29479,-22.836 -14.48427,-19.94085 -22.71632,-43.68765 -26.7249,-67.73976 -2.19434,-12.9001 -3.39319,-25.9638 -3.37954,-39.04802 -0.13858,-11.80023 -0.0978,-23.63385 1.38495,-35.3629 5.21794,-48.885314 21.15628,-96.548634 45.87355,-139.202284 14.42454,-24.58858 31.9127,-47.80058 53.95149,-66.27536 13.9853,-11.56165 30.13276,-21.437596 48.24021,-25.002706 4.42762,-0.84881 8.93553,-1.28569 13.4462,-1.30451 z"
       id="path9034"
       inkscape:connector-curvature="0" />
    <g
       style="display:inline;fill:#071159;fill-opacity:1"
       id="g9091"
       transform="matrix(2.7262325,0,0,2.7262325,171.43222,-454.92245)">
      <path
         d="m 60.4089,220.1395 -0.609,-15.6219 13.481,-8.4941 13.6126,7.2951 0.692,16.0431 -13.481,8.4935 z"
         style="fill:#071159;fill-opacity:1;fill-rule:evenodd"
         id="path2"
         inkscape:connector-curvature="0" />
      <path
         d="m 33.6628,217.112 -0.0823,-22.4502 29.2906,-18.2808 14.0091,8.3629 c -10.1028,6.5645 -14.7455,9.3309 -24.9875,15.6991 l -0.1926,5.9751 z"
         style="fill:#071159;fill-opacity:1;fill-rule:evenodd"
         id="path4"
         inkscape:connector-curvature="0" />
      <path
         d="m 35.0548,248.4071 -12.0432,-19.0814 28.7863,-16.8447 1.1557,12.3346 10.7928,5.589 z"
         style="fill:#071159;fill-opacity:1;fill-rule:evenodd"
         id="path6"
         inkscape:connector-curvature="0" />
      <path
         d="m 50.128,245.2642 19.919,10.3549 29.8294,-18.2487 -1.8935,-15.6419 c -10.3375,6.1835 -14.3477,8.7856 -24.6876,14.9664 l -5.3995,-2.5663 z"
         style="fill:#071159;fill-opacity:1;fill-rule:evenodd"
         id="path8"
         inkscape:connector-curvature="0" />
    </g>
  </g>
</svg>
