<svg id="Layer_1" data-name="Layer 1" xmlns="http://www.w3.org/2000/svg" viewBox="0 0 1126.76 186.81"><defs><style>.cls-1{fill:#1d1d1b;}.cls-2{fill:#009fe1;}</style></defs><path class="cls-1" d="M838.1,423.53a15.17,15.17,0,0,0-.18,2.23v3.78H778.15a29.24,29.24,0,0,0,1.63,9.79,19.23,19.23,0,0,0,4.9,7.73,24.35,24.35,0,0,0,5.58,3.86,16.51,16.51,0,0,0,7.64,1.64,26,26,0,0,0,7.65-.95,13.19,13.19,0,0,0,5.41-3.35,16.55,16.55,0,0,0,4.29-7.55h20.61a24.79,24.79,0,0,1-2.66,8.67,39.29,39.29,0,0,1-4.89,7.81,32.13,32.13,0,0,1-13.57,9.62,47.16,47.16,0,0,1-16.49,2.93,39.44,39.44,0,0,1-16.06-3,41,41,0,0,1-22.34-23.62,55.45,55.45,0,0,1-3.52-20.1,60.84,60.84,0,0,1,3.18-20,40.77,40.77,0,0,1,9.71-15.72A37.16,37.16,0,0,1,781.33,379a40.87,40.87,0,0,1,16.4-3.09,43.06,43.06,0,0,1,18.55,4,33.93,33.93,0,0,1,14.09,12.46,39.13,39.13,0,0,1,6.35,15,90.25,90.25,0,0,1,1.38,16.06Zm-21.47-9.62q-.18-9.8-5.5-15.63a15.4,15.4,0,0,0-5.58-3.78,21.16,21.16,0,0,0-8-1.38A19.34,19.34,0,0,0,788.8,395a17.75,17.75,0,0,0-6.19,5,18.51,18.51,0,0,0-3.43,6.18,29.24,29.24,0,0,0-1.2,7.73Z" transform="translate(-27.14 -319.25)"/><path class="cls-1" d="M907.69,467.51V412.7q0-7.89-3.09-12.37t-11.68-4.46a14.14,14.14,0,0,0-9.45,3.18,22.43,22.43,0,0,0-6,8.16,32.24,32.24,0,0,0-2.58,11.59q-.35,6.61-.34,12.29v36.42H853.05V378.17H871.1l1.54,11.51a24,24,0,0,1,11.26-10.39,35.56,35.56,0,0,1,15-3.35,32.15,32.15,0,0,1,12.8,2.4,27.41,27.41,0,0,1,9.45,6.62,28.62,28.62,0,0,1,5.92,10.13,38.61,38.61,0,0,1,2.07,12.8v59.62Z" transform="translate(-27.14 -319.25)"/><path class="cls-1" d="M1000,466.28a73.18,73.18,0,0,1-18.38,2.4q-13.58,0-20.28-7.3t-6.69-20.19V395.83H938.27V378.14H954.6V355.46l21.47-5.33v28h22.51v17.69H976.07V439.3q0,5.16,2.41,7.48c1.6,1.54,4.12,2.32,7.56,2.32,2.29,0,4.43-.06,6.44-.18s4.49-.34,7.47-.68v18Z" transform="translate(-27.14 -319.25)"/><path class="cls-1" d="M1086.89,423.54a16.57,16.57,0,0,0-.17,2.23v3.78h-59.79a29.2,29.2,0,0,0,1.63,9.79,19.36,19.36,0,0,0,4.89,7.74,24.63,24.63,0,0,0,5.59,3.86,16.54,16.54,0,0,0,7.64,1.63,26,26,0,0,0,7.65-.94,13.22,13.22,0,0,0,5.42-3.35,16.63,16.63,0,0,0,4.29-7.56h20.61a24.57,24.57,0,0,1-2.66,8.68,38.4,38.4,0,0,1-4.89,7.81,32.1,32.1,0,0,1-13.58,9.62,47.12,47.12,0,0,1-16.49,2.93,39.56,39.56,0,0,1-16.07-3,40.92,40.92,0,0,1-22.33-23.62A55.29,55.29,0,0,1,1005.1,423a60.8,60.8,0,0,1,3.18-20,40.7,40.7,0,0,1,9.71-15.72A37.14,37.14,0,0,1,1030.1,379a41,41,0,0,1,16.42-3.09,43.12,43.12,0,0,1,18.55,4,33.93,33.93,0,0,1,14.09,12.46,39.26,39.26,0,0,1,6.35,15,90.45,90.45,0,0,1,1.38,16.07Zm-21.47-9.62q-.18-9.8-5.51-15.64a15.66,15.66,0,0,0-5.58-3.78,21.11,21.11,0,0,0-8-1.37,19.36,19.36,0,0,0-8.77,1.89,17.75,17.75,0,0,0-6.19,5,18.38,18.38,0,0,0-3.43,6.19,29.63,29.63,0,0,0-1.21,7.73Z" transform="translate(-27.14 -319.25)"/><path class="cls-1" d="M1153.9,398.1a35.13,35.13,0,0,0-7.39-.86q-11.34,0-17.19,7.22t-5.83,18v45h-21.65V378.17h18.21l1.89,13.4a20.28,20.28,0,0,1,10.22-11.17,34.25,34.25,0,0,1,15-3.43,45.77,45.77,0,0,1,6.7.51V398.1Z" transform="translate(-27.14 -319.25)"/><path class="cls-1" d="M748.73,436.12a40.31,40.31,0,0,1-2.07,10.42,30.46,30.46,0,0,1-4.82,9.06,38.89,38.89,0,0,1-12.5,10,38.46,38.46,0,0,1-18.19,4.14,39.27,39.27,0,0,1-18.45-4.23,40,40,0,0,1-12.76-9.91A42.92,42.92,0,0,1,672.53,441a68.94,68.94,0,0,1,0-36.21,42.83,42.83,0,0,1,7.41-14.65,40.16,40.16,0,0,1,12.76-9.92A39.38,39.38,0,0,1,711.15,376a38.46,38.46,0,0,1,18.19,4.14,38.89,38.89,0,0,1,12.5,10,30.53,30.53,0,0,1,4.82,9.05,40.47,40.47,0,0,1,2.07,10.42H727.52a18.54,18.54,0,0,0-.85-4.48,19.9,19.9,0,0,0-1.73-3.79,14.59,14.59,0,0,0-5.35-4.82,17.24,17.24,0,0,0-8.44-1.9,17.5,17.5,0,0,0-7.68,1.55,18,18,0,0,0-5.43,4,19.92,19.92,0,0,0-5,10.33,73.48,73.48,0,0,0-1,12.42,71.73,71.73,0,0,0,1,12.33,19.92,19.92,0,0,0,5,10.26,19.27,19.27,0,0,0,5.43,4.05,16.68,16.68,0,0,0,7.68,1.64,17.24,17.24,0,0,0,8.44-1.9,14.53,14.53,0,0,0,5.35-4.83,19.62,19.62,0,0,0,1.73-3.79,18.45,18.45,0,0,0,.85-4.48Z" transform="translate(-27.14 -319.25)"/><path class="cls-2" d="M365.35,394.46a21.09,21.09,0,0,0-8-1.37,19.36,19.36,0,0,0-8.77,1.89,17.84,17.84,0,0,0-6.19,5,18.78,18.78,0,0,0-3.44,6.19,29.84,29.84,0,0,0-1.19,7.74h38.67q-.18-9.79-5.5-15.64A15.5,15.5,0,0,0,365.35,394.46Z" transform="translate(-27.14 -319.25)"/><path class="cls-2" d="M615.1,466.74a40.92,40.92,0,0,1-22.35-23.63A55.51,55.51,0,0,1,589.23,423a60.86,60.86,0,0,1,3.18-20,40.66,40.66,0,0,1,9.71-15.73A37.12,37.12,0,0,1,614.25,379a40.58,40.58,0,0,1,16-3.09V356.1a36.85,36.85,0,0,0-36.85-36.85H27.14v94.64H46.48q-.18-9.79-5.5-15.64a15.54,15.54,0,0,0-5.6-3.79,21.09,21.09,0,0,0-8-1.37h-.25V375.91h.42a43.15,43.15,0,0,1,18.57,4A33.87,33.87,0,0,1,60.22,392.4a39.35,39.35,0,0,1,6.37,15,90.89,90.89,0,0,1,1.35,14.94s0,.73,0,1.11v6H27.14v23c.2,0,.39,0,.6,0a25.94,25.94,0,0,0,7.64-.94,13.36,13.36,0,0,0,5.43-3.35,16.82,16.82,0,0,0,4.29-7.56H65.73a25,25,0,0,1-2.67,8.67,38.94,38.94,0,0,1-4.9,7.82,32,32,0,0,1-13.58,9.63,47.13,47.13,0,0,1-16.5,2.93l-.93,0A36.84,36.84,0,0,0,64,506.06H630.23V469.74A38.86,38.86,0,0,1,615.1,466.74ZM172.42,446a36.22,36.22,0,0,1-7.31,10.66A39.81,39.81,0,0,1,148,466.74a74.19,74.19,0,0,1-21.4,3,67.63,67.63,0,0,1-19.34-2.84,43.55,43.55,0,0,1-17.1-9.72,40.36,40.36,0,0,1-9.11-12.29,35.54,35.54,0,0,1-3.6-15.38h22.71a19.4,19.4,0,0,0,1.77,7.65,22.79,22.79,0,0,0,4.56,6.61A19.32,19.32,0,0,0,116,449a48.64,48.64,0,0,0,23-.17,18.59,18.59,0,0,0,9.1-5.08,23.65,23.65,0,0,0,3.45-4.72,14.64,14.64,0,0,0,1.36-7c0-4.47-1.45-7.82-4.38-10.06a23.15,23.15,0,0,0-10.05-4.38A112.08,112.08,0,0,0,124.89,416c-4.93-.34-9.39-.86-13.41-1.54a46.23,46.23,0,0,1-11.94-3.61,33.65,33.65,0,0,1-9.81-6.8A31.24,31.24,0,0,1,83,393.86a34.56,34.56,0,0,1-2.49-13.49,29.84,29.84,0,0,1,2.92-13.23,39.61,39.61,0,0,1,7.74-10.83,41.51,41.51,0,0,1,15.47-9.46,61.12,61.12,0,0,1,39.1-.43A40.46,40.46,0,0,1,161,355.28,42.63,42.63,0,0,1,169.84,367a32.48,32.48,0,0,1,3.52,14.26H150.67a17.49,17.49,0,0,0-1.63-6.44,21.13,21.13,0,0,0-3.69-5.59,19.3,19.3,0,0,0-8.26-4.81,33.41,33.41,0,0,0-10.31-1.73A42.7,42.7,0,0,0,116.21,364a19,19,0,0,0-9.2,5.33,17.1,17.1,0,0,0-3,4.47,13.73,13.73,0,0,0-1.13,5.84q0,6,3.44,9.2a16.57,16.57,0,0,0,9,4q5.83.85,13.15,1.54T141.74,396a51.14,51.14,0,0,1,13,3.7,35.93,35.93,0,0,1,10.66,7.05,32,32,0,0,1,7.22,10.57,34.77,34.77,0,0,1,2.67,13.92A35.24,35.24,0,0,1,172.42,446Zm36.37-10.87a19.8,19.8,0,0,0,5,10.27,19.56,19.56,0,0,0,5.43,4.05,16.59,16.59,0,0,0,7.68,1.64,17.4,17.4,0,0,0,8.46-1.89,14.86,14.86,0,0,0,5.35-4.83,18.94,18.94,0,0,0,1.72-3.81,17.89,17.89,0,0,0,.86-4.48h21.22a40,40,0,0,1-2.07,10.44,30.5,30.5,0,0,1-4.83,9.06,38.73,38.73,0,0,1-30.71,14.15,39.33,39.33,0,0,1-18.46-4.23,40.27,40.27,0,0,1-12.76-9.92A43.07,43.07,0,0,1,188.26,441a69,69,0,0,1,0-36.23,42.94,42.94,0,0,1,7.42-14.67,40.13,40.13,0,0,1,12.76-9.92,39.33,39.33,0,0,1,18.46-4.23,38.81,38.81,0,0,1,30.71,14.15,30.45,30.45,0,0,1,4.83,9.05,40.2,40.2,0,0,1,2.07,10.44H243.29a18,18,0,0,0-.86-4.48,19,19,0,0,0-1.72-3.79,14.8,14.8,0,0,0-5.35-4.84,19.74,19.74,0,0,0-16.14-.34,18.38,18.38,0,0,0-5.43,4,19.9,19.9,0,0,0-5,10.36,73.3,73.3,0,0,0-1,12.42A71.81,71.81,0,0,0,208.79,435.16Zm91.68,32.35H278.64V378.13h21.83Zm0-101.92H278.64V343.76h21.83Zm97.45,63.93h-60a29.26,29.26,0,0,0,1.64,9.8,19.06,19.06,0,0,0,4.9,7.73,24.38,24.38,0,0,0,5.58,3.87,16.57,16.57,0,0,0,7.66,1.63,25.94,25.94,0,0,0,7.64-.94,13.32,13.32,0,0,0,5.42-3.35,16.64,16.64,0,0,0,4.29-7.56h20.63a25,25,0,0,1-2.66,8.67,39.4,39.4,0,0,1-4.9,7.82,32,32,0,0,1-13.58,9.63A47.23,47.23,0,0,1,358,469.76a39.3,39.3,0,0,1-16.06-3,40.92,40.92,0,0,1-22.35-23.63A55.29,55.29,0,0,1,316.1,423a60.86,60.86,0,0,1,3.18-20A40.57,40.57,0,0,1,329,387.25,37.07,37.07,0,0,1,341.12,379a40.74,40.74,0,0,1,16.41-3.1,43.22,43.22,0,0,1,18.57,4,34,34,0,0,1,14.09,12.46,39.48,39.48,0,0,1,6.36,15,90.89,90.89,0,0,1,1.35,14.94s0,.73,0,1.11Zm91.11,38h-21.5V412.69q0-7.92-3.09-12.38t-11.68-4.47A14.19,14.19,0,0,0,443.3,399a22.38,22.38,0,0,0-6,8.16,32.19,32.19,0,0,0-2.58,11.61q-.36,6.61-.35,12.29v36.43H412.88V378.13h18.05l1.54,11.52a24.21,24.21,0,0,1,11.26-10.4,35.79,35.79,0,0,1,15-3.35,32,32,0,0,1,12.81,2.41,27.52,27.52,0,0,1,9.45,6.61A28.87,28.87,0,0,1,487,395.07a38.82,38.82,0,0,1,2.07,12.8Zm36.89-32.35a19.8,19.8,0,0,0,5,10.27,19.56,19.56,0,0,0,5.43,4.05,16.59,16.59,0,0,0,7.68,1.64,17.4,17.4,0,0,0,8.46-1.89,14.86,14.86,0,0,0,5.35-4.83,18.94,18.94,0,0,0,1.72-3.81,18.35,18.35,0,0,0,.86-4.48h21.22a40,40,0,0,1-2.07,10.44,30.5,30.5,0,0,1-4.83,9.06A38.73,38.73,0,0,1,544,469.76a39.33,39.33,0,0,1-18.46-4.23,40.27,40.27,0,0,1-12.76-9.92A43.07,43.07,0,0,1,505.39,441a69,69,0,0,1,0-36.23,42.94,42.94,0,0,1,7.42-14.67,40.13,40.13,0,0,1,12.76-9.92A39.33,39.33,0,0,1,544,375.9a38.81,38.81,0,0,1,30.71,14.15,30.45,30.45,0,0,1,4.83,9.05,40.2,40.2,0,0,1,2.07,10.44H560.42a18.44,18.44,0,0,0-.86-4.48,19,19,0,0,0-1.72-3.79,14.8,14.8,0,0,0-5.35-4.84,19.74,19.74,0,0,0-16.14-.34,18.38,18.38,0,0,0-5.43,4,19.9,19.9,0,0,0-5,10.36,73.3,73.3,0,0,0-1,12.42A71.81,71.81,0,0,0,525.92,435.16Z" transform="translate(-27.14 -319.25)"/><path class="cls-2" d="M617.6,447.06a24.38,24.38,0,0,0,5.58,3.87,16.11,16.11,0,0,0,7.05,1.6v-23H611.06a29.51,29.51,0,0,0,1.63,9.8A19.18,19.18,0,0,0,617.6,447.06Z" transform="translate(-27.14 -319.25)"/><path class="cls-2" d="M621.72,395a17.75,17.75,0,0,0-6.19,5,18.6,18.6,0,0,0-3.44,6.19,30.24,30.24,0,0,0-1.2,7.74h19.34v-20.8A19.28,19.28,0,0,0,621.72,395Z" transform="translate(-27.14 -319.25)"/></svg>