<svg id="Laag_1" data-name="Laag 1" xmlns="http://www.w3.org/2000/svg" viewBox="0 0 771.51 211.9"><defs><style>.cls-1{fill:#1d1d1b;}.cls-2{fill:#009fe1;}</style></defs><path class="cls-1" d="M233.91,369.56V345.21a10.57,10.57,0,0,0-1.93-6.75Q230,336,225.5,336a7.84,7.84,0,0,0-4.93,1.63,11.64,11.64,0,0,0-3.41,4.28,13.77,13.77,0,0,0-1.18,4.86c-.13,1.82-.19,3.46-.19,4.93v17.82h-6.45V331.18H215l.53,5.77a9.37,9.37,0,0,1,2-2.92,12.18,12.18,0,0,1,2.89-2.09,16.4,16.4,0,0,1,3.33-1.29,13.43,13.43,0,0,1,3.34-.45q6.6,0,9.93,3.71t3.34,10.39v25.26Z" transform="translate(-209.34 -314.8)"/><path class="cls-1" d="M284.65,348.32v2.09c0,.68,0,1.38-.08,2.08H257.42a14.77,14.77,0,0,0,1,5.27,11.83,11.83,0,0,0,2.73,4.36,9.54,9.54,0,0,0,7.05,2.73q4.69,0,7.13-2.5a8.66,8.66,0,0,0,1.36-1.74,9.18,9.18,0,0,0,.91-2.43h6.3a13.27,13.27,0,0,1-2,5.39,14,14,0,0,1-3.95,4.09,16.8,16.8,0,0,1-4.55,2.12,17.79,17.79,0,0,1-5.23.76,16.74,16.74,0,0,1-7.32-1.55,16,16,0,0,1-5.42-4.21,18.18,18.18,0,0,1-3.6-6.49,25.16,25.16,0,0,1-1.18-7.77,29.93,29.93,0,0,1,.69-6.56,19,19,0,0,1,2.27-5.72,16.65,16.65,0,0,1,5.76-5.77,16.45,16.45,0,0,1,8.72-2.27,15.81,15.81,0,0,1,6.64,1.33,15.48,15.48,0,0,1,5,3.6,18.32,18.32,0,0,1,3.57,5.91A20.43,20.43,0,0,1,284.65,348.32Zm-6.6-1.36a14.71,14.71,0,0,0-.61-4.25,11,11,0,0,0-1.74-3.56,8.71,8.71,0,0,0-3.11-2.54,9.83,9.83,0,0,0-4.48-.95,10,10,0,0,0-4.58,1,10.25,10.25,0,0,0-3.26,2.58,10.65,10.65,0,0,0-2,3.6,15.24,15.24,0,0,0-.72,4.14Z" transform="translate(-209.34 -314.8)"/><path class="cls-1" d="M315,369a30.11,30.11,0,0,1-3.15.73,26.16,26.16,0,0,1-4.51.34,12.8,12.8,0,0,1-5.15-.91,8.62,8.62,0,0,1-3.23-2.35,8.73,8.73,0,0,1-1.67-3.3,14.84,14.84,0,0,1-.49-3.83v-23h-7.43v-5.54h7.43V321.4l6.45-1.52v11.3H314.6v5.54H303.23v22.22a4.45,4.45,0,0,0,5.15,5.23c.71,0,1.44,0,2.2-.07s1.47-.13,2.13-.23,1.51-.23,2.27-.38Z" transform="translate(-209.34 -314.8)"/><path class="cls-1" d="M348.88,369.56V345.21a10.57,10.57,0,0,0-1.94-6.75Q345,336,340.46,336a7.86,7.86,0,0,0-4.93,1.63,11.84,11.84,0,0,0-3.41,4.28,13.77,13.77,0,0,0-1.18,4.86c-.12,1.82-.19,3.46-.19,4.93v17.82h-6.44V314.8h6.44v21.47a11.47,11.47,0,0,1,4.86-4.52A14.14,14.14,0,0,1,342,330.2q6.6,0,10,3.71t3.37,10.39v25.26Z" transform="translate(-209.34 -314.8)"/><path class="cls-1" d="M399.76,348.32v2.09c0,.68,0,1.38-.08,2.08H372.54a14.76,14.76,0,0,0,1,5.27,12.09,12.09,0,0,0,2.73,4.36,9.55,9.55,0,0,0,7.06,2.73q4.69,0,7.12-2.5a8.72,8.72,0,0,0,1.37-1.74,9.94,9.94,0,0,0,.91-2.43H399a13.13,13.13,0,0,1-2,5.39,14,14,0,0,1-3.94,4.09,16.94,16.94,0,0,1-4.55,2.12,17.79,17.79,0,0,1-5.23.76A16.74,16.74,0,0,1,376,369a16,16,0,0,1-5.43-4.21,18.49,18.49,0,0,1-3.6-6.49,25.46,25.46,0,0,1-1.17-7.77,29.94,29.94,0,0,1,.68-6.56,19,19,0,0,1,2.27-5.72,16.6,16.6,0,0,1,5.77-5.77,16.4,16.4,0,0,1,8.72-2.27,15.5,15.5,0,0,1,11.68,4.93,18.47,18.47,0,0,1,3.56,5.91A20.43,20.43,0,0,1,399.76,348.32Zm-6.6-1.36a15.05,15.05,0,0,0-.6-4.25,11.27,11.27,0,0,0-1.75-3.56,8.62,8.62,0,0,0-3.11-2.54,9.76,9.76,0,0,0-4.47-.95,10.09,10.09,0,0,0-4.59,1,10.25,10.25,0,0,0-3.26,2.58,10.8,10.8,0,0,0-2,3.6,15.24,15.24,0,0,0-.72,4.14Z" transform="translate(-209.34 -314.8)"/><path class="cls-1" d="M431.31,337.48c-.56-.1-1.15-.18-1.78-.23s-1.23-.08-1.79-.08a9.64,9.64,0,0,0-4.13.88,11,11,0,0,0-3.15,2.16,9.66,9.66,0,0,0-1.85,2.61,13,13,0,0,0-1.07,3.15,25.5,25.5,0,0,0-.45,3.34c-.08,1.11-.11,2.17-.11,3.18v17.07h-6.37V331.18h5.68l.53,6.75a10.43,10.43,0,0,1,4.67-5.27,14.07,14.07,0,0,1,6.78-1.7,20.73,20.73,0,0,1,3,.22Z" transform="translate(-209.34 -314.8)"/><path class="cls-1" d="M452.08,369.56a5.65,5.65,0,0,1-1.13.22,19,19,0,0,1-3.42.23c-2.83,0-4.87-.81-6.14-2.43s-1.89-3.94-1.89-7V314.8h6.44v45.43a4.8,4.8,0,0,0,.76,3,3.26,3.26,0,0,0,2.73,1h2.12a1.7,1.7,0,0,0,.53-.07Z" transform="translate(-209.34 -314.8)"/><path class="cls-1" d="M493.94,369.18a8.2,8.2,0,0,1-2,.72,12.35,12.35,0,0,1-2.2.19,5.09,5.09,0,0,1-4.06-1.71,6.07,6.07,0,0,1-1.48-4.13H484a11.86,11.86,0,0,1-5,4.59,15.93,15.93,0,0,1-7.39,1.7,15.07,15.07,0,0,1-5.8-1,12.13,12.13,0,0,1-4.1-2.69,11.35,11.35,0,0,1-2.46-3.8,11.61,11.61,0,0,1-.84-4.32,13,13,0,0,1,.65-3.87,9.72,9.72,0,0,1,2.24-3.75,13.32,13.32,0,0,1,4.2-2.92,18.09,18.09,0,0,1,6.56-1.44l11.68-.68v-2.81a14.28,14.28,0,0,0-.34-3,5.37,5.37,0,0,0-1.63-2.81,7.4,7.4,0,0,0-2.46-1.44,11.69,11.69,0,0,0-3.83-.53,12.23,12.23,0,0,0-4.33.65,7.53,7.53,0,0,0-2.65,1.63,6.29,6.29,0,0,0-1.9,4.62h-6.29a12,12,0,0,1,.95-4.59,11.49,11.49,0,0,1,2.39-3.45,12.17,12.17,0,0,1,5.12-3.07,21.57,21.57,0,0,1,6.71-1c3.74,0,6.69.69,8.87,2.08a11.72,11.72,0,0,1,4.62,5.27,14.88,14.88,0,0,1,1.14,5.92v18.58a2.81,2.81,0,0,0,.57,2.05,2.22,2.22,0,0,0,1.56.53h.53a1.69,1.69,0,0,0,.53-.08l.6-.15Zm-10.16-18.13-10.31.61a14.4,14.4,0,0,0-3,.49,9.4,9.4,0,0,0-2.73,1.22,6.14,6.14,0,0,0-2,2.08,6,6,0,0,0-.76,3.11,6.78,6.78,0,0,0,1.75,4.59q1.74,2,5.83,2a12.36,12.36,0,0,0,4.29-.76,9.34,9.34,0,0,0,3.6-2.35,10.09,10.09,0,0,0,2.5-4,14.64,14.64,0,0,0,.76-4.7Z" transform="translate(-209.34 -314.8)"/><path class="cls-1" d="M528.75,369.56V345.21a10.57,10.57,0,0,0-1.93-6.75q-1.94-2.41-6.49-2.42a7.86,7.86,0,0,0-4.93,1.63A11.84,11.84,0,0,0,512,342a13.56,13.56,0,0,0-1.17,4.86c-.13,1.82-.19,3.46-.19,4.93v17.82h-6.45V331.18h5.61l.53,5.77a9.57,9.57,0,0,1,2.05-2.92,12.33,12.33,0,0,1,2.88-2.09,16.49,16.49,0,0,1,3.34-1.29,13.31,13.31,0,0,1,3.34-.45q6.59,0,9.93,3.71t3.34,10.39v25.26Z" transform="translate(-209.34 -314.8)"/><path class="cls-1" d="M573.87,369.56l-.45-5a11.07,11.07,0,0,1-4.93,4.44,15.16,15.16,0,0,1-6.53,1.55,16.49,16.49,0,0,1-6.25-1.1,13,13,0,0,1-4.59-3.07,18,18,0,0,1-4.13-7,27.73,27.73,0,0,1-1.41-8.94,28.41,28.41,0,0,1,1.48-9.29,17.85,17.85,0,0,1,4.36-7.09,14.77,14.77,0,0,1,4.52-2.81,15.85,15.85,0,0,1,6-1.06,13.83,13.83,0,0,1,3.23.38,16.58,16.58,0,0,1,3.14,1.06,11.67,11.67,0,0,1,2.77,1.71,8.41,8.41,0,0,1,2,2.31V314.8h6.45v54.76Zm-.38-19.19a25,25,0,0,0-.91-6.86,10.9,10.9,0,0,0-3.34-5.35,10.47,10.47,0,0,0-2.61-1.78,8.19,8.19,0,0,0-3.6-.72,10,10,0,0,0-5.31,1.29,9.41,9.41,0,0,0-3.34,3.41,15.21,15.21,0,0,0-1.71,4.74,28.58,28.58,0,0,0,0,10.54,15.12,15.12,0,0,0,1.71,4.74,9.33,9.33,0,0,0,3.34,3.41,10,10,0,0,0,5.31,1.29,8.19,8.19,0,0,0,3.6-.72,10.47,10.47,0,0,0,2.61-1.78,10.9,10.9,0,0,0,3.34-5.35A25,25,0,0,0,573.49,350.37Z" transform="translate(-209.34 -314.8)"/><path class="cls-1" d="M622.1,358.41a11.15,11.15,0,0,1-.83,4.43,11.54,11.54,0,0,1-2.2,3.38,12.75,12.75,0,0,1-5.46,3.3,24.95,24.95,0,0,1-13.88.07,13.05,13.05,0,0,1-5.61-3.37,12.52,12.52,0,0,1-2.73-4.06,11.92,11.92,0,0,1-1-4.74h6.45a7.41,7.41,0,0,0,.91,3.45,8.23,8.23,0,0,0,2.2,2.54,7.56,7.56,0,0,0,3.18,1.37,19.09,19.09,0,0,0,3.72.38,16.33,16.33,0,0,0,3.75-.42,7.81,7.81,0,0,0,3.3-1.71,4.26,4.26,0,0,0,1.36-1.74,5.61,5.61,0,0,0,.54-2.43,4.82,4.82,0,0,0-1.52-3.64,7.81,7.81,0,0,0-4.47-1.82l-1.67-.22c-.71-.1-1.47-.21-2.28-.31l-2.46-.3c-.84-.1-1.58-.2-2.24-.3a11.86,11.86,0,0,1-6.86-3.3,9.62,9.62,0,0,1-2.54-7,9.8,9.8,0,0,1,.94-4.21,11.74,11.74,0,0,1,2.24-3.29,13.08,13.08,0,0,1,4.78-3.11,17.58,17.58,0,0,1,6.52-1.14,19.61,19.61,0,0,1,7,1.21,12,12,0,0,1,5.16,3.64,12.23,12.23,0,0,1,2,3.26,10.73,10.73,0,0,1,.72,4.1h-6.45a6.68,6.68,0,0,0-.72-2.77,7.26,7.26,0,0,0-1.47-2,9.12,9.12,0,0,0-6.3-2.05c-.76,0-1.47,0-2.12.08a7.45,7.45,0,0,0-2.35.68,6.62,6.62,0,0,0-2.85,2.16,5,5,0,0,0-1,3,4.24,4.24,0,0,0,1.36,3.52,7.84,7.84,0,0,0,3.8,1.48c1.06.15,2.35.32,3.86.5s3.31.44,5.39.79a12.63,12.63,0,0,1,6.94,3.49A9.61,9.61,0,0,1,622.1,358.41Z" transform="translate(-209.34 -314.8)"/><path class="cls-1" d="M703,478.78a27.66,27.66,0,0,1-1.42,7.15,20.76,20.76,0,0,1-3.31,6.21,26.53,26.53,0,0,1-21,9.69,27,27,0,0,1-12.65-2.89,27.51,27.51,0,0,1-8.75-6.8,29.43,29.43,0,0,1-5.09-10.05,47.53,47.53,0,0,1,0-24.83,29.62,29.62,0,0,1,5.09-10.05,27.49,27.49,0,0,1,8.75-6.79,27,27,0,0,1,12.65-2.9,26.25,26.25,0,0,1,12.47,2.84,26.62,26.62,0,0,1,8.57,6.85,21,21,0,0,1,3.31,6.21,27.82,27.82,0,0,1,1.42,7.15H688.48a12.86,12.86,0,0,0-.59-3.07,13.44,13.44,0,0,0-1.18-2.6,10,10,0,0,0-3.67-3.31,13.56,13.56,0,0,0-11-.24,12.47,12.47,0,0,0-3.73,2.72,13.73,13.73,0,0,0-3.43,7.1,50.55,50.55,0,0,0-.71,8.51,49.49,49.49,0,0,0,.71,8.45,13.7,13.7,0,0,0,3.43,7,13.15,13.15,0,0,0,3.73,2.77,11.35,11.35,0,0,0,5.26,1.13,12,12,0,0,0,5.79-1.3,10,10,0,0,0,3.67-3.31,13.72,13.72,0,0,0,1.18-2.6,12.84,12.84,0,0,0,.59-3.08Z" transform="translate(-209.34 -314.8)"/><path class="cls-1" d="M812.38,500.54V462.82q0-5.43-2.13-8.51t-8-3.08a9.74,9.74,0,0,0-6.5,2.19,15.57,15.57,0,0,0-4.14,5.62,22.36,22.36,0,0,0-1.77,8q-.24,4.55-.24,8.45v25.07H774.78V439.06H787.2l1.06,7.92a16.54,16.54,0,0,1,7.75-7.15,24.48,24.48,0,0,1,10.34-2.31,22,22,0,0,1,8.81,1.66,18.73,18.73,0,0,1,6.5,4.55,19.84,19.84,0,0,1,4.08,7,26.55,26.55,0,0,1,1.42,8.81v41Z" transform="translate(-209.34 -314.8)"/><path class="cls-1" d="M875.51,499.71a50.35,50.35,0,0,1-12.65,1.65q-9.35,0-14-5t-4.61-13.89V451.23H833.07V439.06H844.3V423.45l14.78-3.66v19.27h15.49v12.17H859.08v29.92q0,3.54,1.65,5.14c1.11,1.06,2.84,1.6,5.21,1.6,1.57,0,3,0,4.43-.12s3.09-.24,5.14-.48Z" transform="translate(-209.34 -314.8)"/><path class="cls-1" d="M980.85,452.77a24.26,24.26,0,0,0-5.08-.59q-7.8,0-11.83,5a19.12,19.12,0,0,0-4,12.41v31H945V439.06h12.53l1.3,9.22a13.91,13.91,0,0,1,7-7.69,23.58,23.58,0,0,1,10.34-2.36,31.94,31.94,0,0,1,4.61.35Z" transform="translate(-209.34 -314.8)"/><path class="cls-2" d="M218.92,452.89a10.65,10.65,0,0,0-3.84-2.6,14.48,14.48,0,0,0-5.5-1h-.24v14.3H222.7C222.63,459.16,221.36,455.57,218.92,452.89Z" transform="translate(-209.34 -314.8)"/><path class="cls-2" d="M440.8,450.29a14.48,14.48,0,0,0-5.5-1,13.38,13.38,0,0,0-6,1.3,12.26,12.26,0,0,0-4.26,3.43,12.69,12.69,0,0,0-2.36,4.26,20.13,20.13,0,0,0-.83,5.32h26.6q-.12-6.73-3.78-10.76A10.83,10.83,0,0,0,440.8,450.29Z" transform="translate(-209.34 -314.8)"/><path class="cls-2" d="M612.05,454.07a12.69,12.69,0,0,0-2.36,4.26,20.13,20.13,0,0,0-.83,5.32H622.1v-14.3a13.27,13.27,0,0,0-5.79,1.29A12.17,12.17,0,0,0,612.05,454.07Z" transform="translate(-209.34 -314.8)"/><path class="cls-2" d="M610.1,481.15a13.3,13.3,0,0,0,3.37,5.32,17.11,17.11,0,0,0,3.84,2.66,11.2,11.2,0,0,0,4.79,1.1V474.41H609A20.16,20.16,0,0,0,610.1,481.15Z" transform="translate(-209.34 -314.8)"/><path class="cls-2" d="M611.76,500a29.52,29.52,0,0,1-8.34-5.49,29.83,29.83,0,0,1-7-10.76A38,38,0,0,1,594,469.92a41.87,41.87,0,0,1,2.19-13.78,28.06,28.06,0,0,1,6.68-10.82,25.71,25.71,0,0,1,8.33-5.67,28,28,0,0,1,10.94-2.11V424.35a25.49,25.49,0,0,0-25.5-25.5H209.34v38.69l.36,0a29.68,29.68,0,0,1,12.77,2.78,23.25,23.25,0,0,1,9.69,8.57,27,27,0,0,1,4.38,10.35,62.26,62.26,0,0,1,.93,10.32v4.87H209.34v15.82l.48,0a18,18,0,0,0,5.26-.65,8.94,8.94,0,0,0,3.72-2.31,11.32,11.32,0,0,0,3-5.2H236a17,17,0,0,1-1.84,6,26.41,26.41,0,0,1-3.37,5.38,22.05,22.05,0,0,1-9.34,6.62,32.46,32.46,0,0,1-11.35,2l-.66,0a25.47,25.47,0,0,0,25.45,24.66H622.1V502A26.56,26.56,0,0,1,611.76,500Zm-303-14.24a25,25,0,0,1-5,7.33A27.36,27.36,0,0,1,292,500a51.09,51.09,0,0,1-14.72,2.07,46.45,46.45,0,0,1-13.3-1.95,29.82,29.82,0,0,1-11.76-6.68A27.85,27.85,0,0,1,245.9,485a24.55,24.55,0,0,1-2.48-11.05H259a13.47,13.47,0,0,0,1.24,5.73,15.94,15.94,0,0,0,3.14,4.55,13.25,13.25,0,0,0,6.56,3.61,33.61,33.61,0,0,0,15.78-.12,12.84,12.84,0,0,0,6.27-3.49,16.79,16.79,0,0,0,2.36-3.25,10,10,0,0,0,.95-4.79q0-4.6-3-6.92a15.91,15.91,0,0,0-6.91-3,76.4,76.4,0,0,0-9.34-1.18,91.83,91.83,0,0,1-9.22-1.07,31.5,31.5,0,0,1-8.22-2.48,23.16,23.16,0,0,1-6.74-4.67,21.57,21.57,0,0,1-4.61-7,23.86,23.86,0,0,1-1.71-9.29,20.41,20.41,0,0,1,2-9.1,27.16,27.16,0,0,1,5.32-7.45,28.52,28.52,0,0,1,10.64-6.5,40.38,40.38,0,0,1,14-2.36,40.91,40.91,0,0,1,12.94,2.06,28,28,0,0,1,10.47,6.09,29.32,29.32,0,0,1,6.08,8,22.3,22.3,0,0,1,2.43,9.82H293.78a12.12,12.12,0,0,0-1.12-4.44,14.66,14.66,0,0,0-2.54-3.84,13.26,13.26,0,0,0-5.68-3.31,23,23,0,0,0-7.09-1.18,29.43,29.43,0,0,0-7.27.94,13.07,13.07,0,0,0-6.33,3.67,11.85,11.85,0,0,0-2.07,3.07,9.58,9.58,0,0,0-.77,4,8.19,8.19,0,0,0,2.37,6.33,11.38,11.38,0,0,0,6.15,2.78c2.68.39,5.69.75,9,1.06s6.4.67,9.16,1.06a35.21,35.21,0,0,1,8.93,2.55,24.68,24.68,0,0,1,7.33,4.84,22.26,22.26,0,0,1,5,7.27,24,24,0,0,1,1.83,9.58A24.28,24.28,0,0,1,308.74,485.76Zm24.88-7.63a13.7,13.7,0,0,0,3.43,7,13.51,13.51,0,0,0,3.73,2.78,11.48,11.48,0,0,0,5.26,1.12,11.86,11.86,0,0,0,5.79-1.3,10,10,0,0,0,3.67-3.31,13.72,13.72,0,0,0,1.18-2.6,12.84,12.84,0,0,0,.59-3.08h14.54a27.81,27.81,0,0,1-1.42,7.16,20.83,20.83,0,0,1-3.31,6.2,26.57,26.57,0,0,1-21,9.7,27,27,0,0,1-12.65-2.9,27.51,27.51,0,0,1-8.75-6.8,29.43,29.43,0,0,1-5.09-10.05,47.49,47.49,0,0,1,0-24.82,29.43,29.43,0,0,1,5.09-10,27.37,27.37,0,0,1,8.75-6.8,27,27,0,0,1,12.65-2.9,26.57,26.57,0,0,1,21,9.7,20.83,20.83,0,0,1,3.31,6.2,27.81,27.81,0,0,1,1.42,7.16H357.27a12.84,12.84,0,0,0-.59-3.08,13.72,13.72,0,0,0-1.18-2.6,10,10,0,0,0-3.67-3.31,13.56,13.56,0,0,0-11.05-.24,12.6,12.6,0,0,0-3.73,2.72,13.73,13.73,0,0,0-3.43,7.1,50.55,50.55,0,0,0-.71,8.51A49.49,49.49,0,0,0,333.62,478.13Zm62.9,22.41h-15V439.06h15Zm.35-70H381V415.29h15.84Zm66.33,43.87H421.94a20.16,20.16,0,0,0,1.12,6.74,13.3,13.3,0,0,0,3.37,5.32,17.11,17.11,0,0,0,3.84,2.66,11.38,11.38,0,0,0,5.26,1.12,18,18,0,0,0,5.27-.65,9,9,0,0,0,3.72-2.31,11.41,11.41,0,0,0,3-5.2h14.18a17.14,17.14,0,0,1-1.83,6,26.85,26.85,0,0,1-3.37,5.38,22.05,22.05,0,0,1-9.34,6.62,32.5,32.5,0,0,1-11.35,2,27.07,27.07,0,0,1-11-2.07,29.52,29.52,0,0,1-8.34-5.49,29.83,29.83,0,0,1-7-10.76,38,38,0,0,1-2.43-13.83,41.87,41.87,0,0,1,2.19-13.78,28.06,28.06,0,0,1,6.68-10.82,25.65,25.65,0,0,1,8.34-5.67,28.1,28.1,0,0,1,11.29-2.13,29.71,29.71,0,0,1,12.77,2.78,23.25,23.25,0,0,1,9.69,8.57,27.11,27.11,0,0,1,4.37,10.35,61.21,61.21,0,0,1,.93,10.32l0,4.8Zm62.42,26.13H510.85V462.82q0-5.43-2.13-8.51t-8-3.07a9.78,9.78,0,0,0-6.51,2.18A15.43,15.43,0,0,0,490,459a22.19,22.19,0,0,0-1.78,8c-.16,3-.23,5.85-.23,8.45v25.07H473.25V439.06h12.41l1.07,7.92a16.57,16.57,0,0,1,7.74-7.15,24.51,24.51,0,0,1,10.34-2.31,21.94,21.94,0,0,1,8.81,1.66,18.86,18.86,0,0,1,6.51,4.55,19.67,19.67,0,0,1,4.07,7,26.55,26.55,0,0,1,1.42,8.81Zm25.07-22.41a13.2,13.2,0,0,0,7.15,9.82,11.51,11.51,0,0,0,5.26,1.12,11.86,11.86,0,0,0,5.79-1.3,10,10,0,0,0,3.67-3.31,13.72,13.72,0,0,0,1.18-2.6,12.84,12.84,0,0,0,.59-3.08h14.54a27.81,27.81,0,0,1-1.42,7.16,20.61,20.61,0,0,1-3.31,6.2,26.57,26.57,0,0,1-21,9.7,27,27,0,0,1-12.65-2.9,27.51,27.51,0,0,1-8.75-6.8,29.24,29.24,0,0,1-5.08-10.05,47.22,47.22,0,0,1,0-24.82,29.24,29.24,0,0,1,5.08-10,27.37,27.37,0,0,1,8.75-6.8,27,27,0,0,1,12.65-2.9,26.57,26.57,0,0,1,21,9.7,20.61,20.61,0,0,1,3.31,6.2,27.81,27.81,0,0,1,1.42,7.16H574.33a12.84,12.84,0,0,0-.59-3.08,13.72,13.72,0,0,0-1.18-2.6,10,10,0,0,0-3.67-3.31,13.56,13.56,0,0,0-11-.24,12.6,12.6,0,0,0-3.73,2.72,13.64,13.64,0,0,0-3.42,7.1,49.53,49.53,0,0,0-.71,8.51A48.5,48.5,0,0,0,550.69,478.13Z" transform="translate(-209.34 -314.8)"/><path class="cls-1" d="M764.78,469.54a62.26,62.26,0,0,0-.93-10.32,27,27,0,0,0-4.38-10.35,23.25,23.25,0,0,0-9.69-8.57A29.68,29.68,0,0,0,737,437.52a28.1,28.1,0,0,0-11.29,2.13,25.76,25.76,0,0,0-8.34,5.67,28,28,0,0,0-6.67,10.82,41.87,41.87,0,0,0-2.19,13.78,38.18,38.18,0,0,0,2.42,13.83A28.14,28.14,0,0,0,726.31,500a27.12,27.12,0,0,0,11.06,2.07,32.5,32.5,0,0,0,11.35-2,22.18,22.18,0,0,0,9.34-6.62,27.31,27.31,0,0,0,3.37-5.38,17.14,17.14,0,0,0,1.83-6H749.07a11.32,11.32,0,0,1-3,5.2,8.94,8.94,0,0,1-3.72,2.31,18,18,0,0,1-5.26.65,11.38,11.38,0,0,1-5.26-1.12,17.11,17.11,0,0,1-3.84-2.66,13.19,13.19,0,0,1-3.37-5.32,20.16,20.16,0,0,1-1.13-6.74h41.26v-4.87Zm-41.37-5.89a20.55,20.55,0,0,1,.83-5.32,12.72,12.72,0,0,1,2.37-4.26,12.22,12.22,0,0,1,4.25-3.43,13.44,13.44,0,0,1,6-1.3,14.48,14.48,0,0,1,5.5,1,10.65,10.65,0,0,1,3.84,2.6q3.67,4,3.79,10.76Z" transform="translate(-209.34 -314.8)"/><path class="cls-1" d="M935.08,469.54a61.21,61.21,0,0,0-.93-10.32,27.11,27.11,0,0,0-4.37-10.35,23.34,23.34,0,0,0-9.7-8.57,29.68,29.68,0,0,0-12.77-2.78A28.14,28.14,0,0,0,896,439.65a25.61,25.61,0,0,0-8.33,5.67A28.06,28.06,0,0,0,881,456.14a41.87,41.87,0,0,0-2.19,13.78,38,38,0,0,0,2.43,13.83A28.09,28.09,0,0,0,896.61,500a27.15,27.15,0,0,0,11.06,2.07,32.5,32.5,0,0,0,11.35-2,22.12,22.12,0,0,0,9.34-6.62,27.31,27.31,0,0,0,3.37-5.38,17.14,17.14,0,0,0,1.83-6H919.37a11.31,11.31,0,0,1-3,5.2,9,9,0,0,1-3.73,2.31,18,18,0,0,1-5.26.65,11.38,11.38,0,0,1-5.26-1.12,17.11,17.11,0,0,1-3.84-2.66,13.3,13.3,0,0,1-3.37-5.32,20.16,20.16,0,0,1-1.12-6.74H935.1v-.07Zm-41.36-5.89a20.13,20.13,0,0,1,.83-5.32,12.69,12.69,0,0,1,2.36-4.26,12.17,12.17,0,0,1,4.26-3.43,13.38,13.38,0,0,1,6-1.3,14.42,14.42,0,0,1,5.49,1,10.78,10.78,0,0,1,3.85,2.6q3.66,4,3.78,10.76Z" transform="translate(-209.34 -314.8)"/></svg>