<?xml version="1.0" standalone="no"?>
<!DOCTYPE svg PUBLIC "-//W3C//DTD SVG 20010904//EN"
 "http://www.w3.org/TR/2001/REC-SVG-20010904/DTD/svg10.dtd">
<svg version="1.0" xmlns="http://www.w3.org/2000/svg"
 width="1024.000000pt" height="1024.000000pt" viewBox="0 0 1024.000000 1024.000000"
 preserveAspectRatio="xMidYMid meet">
<metadata>
Created by potrace 1.11, written by Peter Selinger 2001-2013
</metadata>
<g transform="translate(0.000000,1024.000000) scale(0.100000,-0.100000)"
fill="#000000" stroke="none">
<path d="M3641 10203 c-16 -62 -31 -164 -31 -218 0 -72 18 -125 52 -157 49
-46 245 -97 438 -114 36 -3 75 -7 88 -10 l22 -4 0 -2928 0 -2927 417 -300
c229 -165 440 -317 468 -337 l51 -37 397 370 397 370 0 2869 0 2868 113 27
c99 23 120 25 183 16 168 -24 304 41 378 183 25 47 26 56 26 207 l0 159 -1495
0 -1494 0 -10 -37z m2720 -99 c27 -20 57 -50 65 -66 14 -27 14 -31 -1 -48 -27
-30 -116 -43 -240 -36 -380 23 -1838 165 -1854 181 -2 3 442 5 988 5 l993 0
49 -36z m-753 -3265 l-3 -2861 -127 -48 -128 -48 0 2867 0 2867 123 41 c67 23
125 42 130 42 4 1 6 -1286 5 -2860z"/>
<path d="M2745 7944 c-95 -13 -158 -29 -225 -55 -82 -33 -218 -119 -264 -168
-17 -17 -36 -31 -43 -31 -18 0 -324 -306 -430 -431 -560 -659 -914 -1449
-1023 -2283 -91 -693 -23 -1374 202 -2025 373 -1081 1167 -1985 2195 -2500
464 -232 944 -374 1468 -436 182 -21 807 -21 995 0 785 89 1532 388 2161 866
343 261 685 613 929 954 184 259 396 647 509 935 303 769 384 1602 235 2420
-129 705 -444 1392 -900 1961 -179 224 -448 495 -619 624 -79 60 -201 120
-301 146 -112 30 -306 30 -419 0 -266 -71 -477 -256 -579 -507 -69 -168 -75
-401 -16 -576 44 -133 115 -245 213 -338 369 -348 501 -508 667 -807 158 -284
270 -623 317 -963 23 -172 23 -520 -1 -685 -71 -492 -239 -902 -530 -1290
-102 -136 -356 -396 -483 -495 -388 -300 -800 -477 -1298 -557 -158 -26 -602
-25 -765 0 -825 129 -1523 597 -1950 1307 -177 296 -300 645 -357 1017 -24
157 -24 567 0 723 68 441 210 807 448 1160 135 200 241 316 523 574 494 450
287 1271 -362 1437 -74 19 -237 32 -297 23z"/>
</g>
</svg>
